<?xml version="1.0" encoding="utf-8"?>
<!-- Generator: Adobe Illustrator 15.1.0, SVG Export Plug-In . SVG Version: 6.00 Build 0)  -->
<!DOCTYPE svg PUBLIC "-//W3C//DTD SVG 1.1//EN" "http://www.w3.org/Graphics/SVG/1.1/DTD/svg11.dtd">
<svg version="1.1" id="Layer_1" xmlns="http://www.w3.org/2000/svg" xmlns:xlink="http://www.w3.org/1999/xlink" x="0px" y="0px"
	 width="740.462px" height="148.441px" viewBox="0 0 740.462 148.441" enable-background="new 0 0 740.462 148.441"
	 xml:space="preserve">
<path fill="#002565" d="M738.98,6.324c2.815,4.224,3.2,10.752,0.768,15.232c-2.432,4.479-7.167,6.912-11.52,8.576l-81.408,29.44
	c-4.991,1.28-10.495,0.64-13.951-3.456c-3.585-3.968-4.993-9.472-3.713-14.848c1.152-5.12,6.4-9.344,11.265-10.752l82.56-29.952
	C729.251-1.1,735.396,0.948,738.98,6.324z"/>
<path fill="#002565" d="M464.932,61.364c7.168,13.696,6.399,34.048-2.688,46.721c-11.137,15.871-30.464,20.607-48.769,16
	c-13.952-2.945-26.496-16.641-29.185-30.337c-3.711-18.56,1.408-37.375,17.793-47.872c13.056-8.704,34.56-8.704,48-0.384
	C456.1,49.076,461.86,55.092,464.932,61.364z"/>
<path fill="#002565" d="M252.068,45.748l-6.528,14.72c-8.448-4.096-21.248-6.528-30.08-1.408c-9.984,5.504-14.464,16-13.44,27.136
	c0.896,8.704,6.912,17.92,15.616,20.864c8.96,3.2,19.456,0.64,27.392-2.688c2.048,5.12,4.096,10.24,6.144,15.36
	c-15.488,7.168-38.4,9.344-52.864-1.536c-13.952-9.728-19.712-25.472-17.664-42.239c1.536-14.977,13.952-29.825,28.416-33.921
	C222.756,38.068,239.908,39.348,252.068,45.748z"/>
<path fill="#002565" d="M313.508,44.98c-1.536,4.864-3.712,9.856-5.632,14.848c-8.832-2.432-20.736-6.144-29.056,0.128
	c-1.28,1.408-2.048,3.072-2.048,5.12c0.256,5.632,6.656,6.912,10.752,8.192c10.368,2.561,22.912,6.4,26.752,18.176
	c2.688,9.983-0.384,20.225-8.448,26.752c-13.44,10.752-34.944,7.681-50.048,2.688l5.248-15.616c9.088,3.2,22.912,6.656,30.976-1.152
	c1.536-2.048,2.048-5.376,0.768-7.68c-5.504-6.4-14.592-5.76-21.888-8.576c-6.272-1.792-12.544-7.808-14.336-14.208
	c-2.688-8.32-1.28-18.048,4.992-24.192C274.724,36.788,298.021,38.324,313.508,44.98z"/>
<path fill="#002565" d="M377.124,44.98l-5.759,14.848c-8.704-2.56-20.224-5.76-28.672-0.384c-2.176,1.792-2.816,4.352-2.304,7.04
	c1.152,3.712,5.12,4.992,8.192,6.144c11.008,3.072,24.833,5.888,29.056,18.688c2.561,10.24-0.64,20.608-8.96,27.264
	c-13.312,10.496-34.688,7.168-49.536,2.305l5.376-15.616c8.96,2.816,22.144,6.656,30.336-0.641c1.408-1.663,2.048-3.584,2.048-5.888
	c-1.664-7.168-9.856-6.911-15.36-8.96c-8.96-1.408-19.072-6.784-21.632-16.384c-2.304-7.808-1.408-17.152,4.096-23.168
	c13.184-13.824,36.992-11.776,52.864-5.248H377.124z"/>
<path fill="#002565" d="M134.82,53.556c3.84,6.912,3.968,17.536-1.024,23.936c-3.968,5.248-9.728,7.936-15.872,8.704
	c4.224,1.28,8.32,5.248,10.24,9.344l15.744,27.392l-24.063,0.129l-12.8-25.088c-1.92-3.072-7.219-6.144-11.187-5.633l0,0v30.721
	H73.765V41.972c13.056,0,26.72,0,39.168,0C121.604,41.972,130.341,45.364,134.82,53.556z"/>
<polygon fill="#002565" points="61.861,58.42 26.853,58.42 26.853,74.1 61.861,74.1 61.861,90.292 26.853,90.292 26.853,106.228 
	61.861,106.228 61.861,123.06 5.796,123.06 5.796,42.036 61.861,42.036 "/>
<rect x="149.924" y="42.036" fill="#002565" width="21.76" height="81.024"/>
<path fill="#002565" d="M524.964,79.668c3.327,6.399,6.271,13.056,9.088,19.84c-0.384-6.4-1.664-12.544-1.664-19.2l-0.128-38.272
	h19.071v81.024h-24.575l-19.84-35.841c-4.096-7.295-7.424-14.847-10.497-22.399c1.921,18.561,0.896,38.784,1.28,58.24h-19.327
	V42.036h25.472L524.964,79.668z"/>
<path fill="#002565" d="M738.98,50.996c2.56,3.968,2.943,10.496,0.64,14.72c-2.432,4.352-6.912,6.784-11.136,8.448l-81.792,29.568
	c-4.736,1.152-10.24,0.64-13.695-3.072c-3.713-3.84-5.249-8.831-4.225-14.336c1.023-7.424,9.216-11.648,15.616-13.184l77.951-28.288
	C728.868,42.932,735.524,45.108,738.98,50.996z"/>
<path fill="#FFFFFF" d="M444.581,65.972c5.504,10.625,5.375,26.752-2.304,36.352c-6.017,6.912-16.129,7.937-24.192,5.248
	c-10.496-4.096-13.824-15.232-13.696-25.6c0-9.984,3.584-20.48,13.567-24.448C427.556,54.324,439.332,56.372,444.581,65.972z"/>
<path fill="#FFFFFF" d="M115.365,61.876c1.664,2.944,1.28,7.424-0.384,10.112c-4.736,5.76-12.083,4.352-19.123,4.736V57.268
	C103.025,57.652,110.757,55.86,115.365,61.876z"/>
<path fill="#002565" d="M738.724,95.924c2.56,4.224,2.176,10.879-0.385,14.976c-3.199,4.48-7.936,6.527-12.544,8.192l-79.743,28.799
	c-3.968,0.896-8.704,0.896-11.904-1.535c-5.632-4.096-7.424-11.008-5.632-17.536c1.152-3.712,4.607-7.296,8.191-8.832l85.121-30.976
	C728.612,86.708,735.524,89.78,738.724,95.924z"/>
</svg>
